<?xml version="1.0" encoding="utf-8"?>
<!-- Generator: Adobe Illustrator 27.8.1, SVG Export Plug-In . SVG Version: 6.00 Build 0)  -->
<svg version="1.1" id="Layer_1" xmlns="http://www.w3.org/2000/svg" xmlns:xlink="http://www.w3.org/1999/xlink" x="0px" y="0px"
	 viewBox="0 0 233 232.5" style="enable-background:new 0 0 233 232.5;" xml:space="preserve">
<style type="text/css">
	.st0{fill:#84DD63;}
	.st1{fill:none;stroke:#545454;stroke-width:10;stroke-miterlimit:10;}
</style>
<g>
	<path class="st0" d="M83.4,45.4v26h18.1V92H83.4v52.7c0,3.9,0.7,6.7,2.2,8.4c1.5,1.7,4.4,2.5,8.6,2.5c3.1,0,5.9-0.2,8.3-0.7v21.4
		c-5.5,1.7-11.2,2.5-17.1,2.5c-19.8,0-29.9-10-30.3-30V92H39.7V71.3h15.4v-26H83.4z"/>
	<path class="st0" d="M164.5,166.3c-7,8.5-16.6,12.7-28.9,12.7c-11.3,0-20-3.3-25.9-9.8c-6-6.5-9-16-9.1-28.6V71.3h28.2v68.3
		c0,11,5,16.5,15,16.5c9.6,0,16.1-3.3,19.7-10V71.3h28.3V177h-26.6L164.5,166.3z"/>
</g>
<circle class="st1" cx="116.5" cy="116.5" r="110"/>
</svg>
